<svg width="361" height="297" viewBox="0 0 361 297" fill="none" xmlns="http://www.w3.org/2000/svg">
<path d="M14.4903 296H346.51C354.512 296 361 289.336 361 281.115V64.8858C361 56.6645 354.512 50 346.51 50H14.4903C6.48786 50 0 56.6645 0 64.8858V281.115C0 289.336 6.48786 296 14.4903 296Z" fill="#1C85E8"/>
<path d="M143.427 206.211C142.487 196.045 139.116 180.816 139.116 180.816C139.116 180.816 136.204 180.547 127.22 200.621C120.567 215.665 112.848 230.998 111.572 243.969L126.893 225.694L143.427 206.211Z" fill="#96BAFD"/>
<path d="M81.9774 133.07C80.3384 117.602 84.5474 116.852 84.6064 108.465C84.6354 100.27 97.0094 85.0981 91.1074 85.4051C85.2054 85.7111 81.0614 91.3521 81.0614 91.3521C80.1854 84.0001 81.6644 71.7651 74.1414 67.1491C66.6174 62.5331 64.8464 64.7671 58.7204 66.6031C42.3664 71.6261 51.4954 93.2671 51.6624 100.125C51.8104 104.442 59.4024 120.587 59.7464 123.565L62.1644 135.048L81.9774 133.07Z" fill="#FCA39B"/>
<path d="M72.6559 88.754L70.4189 66.551" stroke="#E56441" stroke-width="1.0064" stroke-linecap="round"/>
<path d="M65.0062 89L61.3672 67.672" stroke="#E56441" stroke-width="1.0064" stroke-linecap="round"/>
<path d="M56.0177 89.049L54.1787 76.285" stroke="#E56441" stroke-width="1.0064" stroke-linecap="round"/>
<path d="M68.416 105.703C71.088 99.457 78.021 93.444 78.021 93.444" stroke="#E56441" stroke-width="1.0064" stroke-linecap="round"/>
<path fill-rule="evenodd" clip-rule="evenodd" d="M84.9871 133.556C84.6731 133.363 84.3231 133.24 83.9631 133.192C83.3101 131.305 82.4991 129.449 81.6431 128.651C79.5991 126.749 64.3741 129.658 61.9441 130.681C60.4011 131.331 60.8171 135.322 61.3271 138.149C61.2331 138.252 61.1441 138.36 61.0601 138.473C60.4901 139.247 60.2271 140.205 60.3231 141.162L69.2401 235.454C69.2391 235.549 69.2381 235.645 69.2381 235.74C69.2381 247.575 78.8331 257.169 90.6681 257.169C96.5321 257.169 101.846 254.814 105.715 250.997L105.801 251.076L111.716 244.017L127.038 225.743L143.427 206.211L145.463 203.988L167.571 178.947C167.571 178.947 167.505 178.922 167.383 178.871C170.153 176.238 172.338 172.909 173.636 169.032C177.878 156.367 171.05 142.661 158.385 138.419C148.242 135.022 137.432 138.725 131.349 146.84C125.315 153.846 112.107 171.24 99.9231 187.547L86.1271 135.042C85.9441 134.423 85.5381 133.893 84.9871 133.556Z" fill="url(#paint0_linear_514_23758)"/>
<path d="M175.553 127.842C175.553 127.842 150.95 135.102 144.759 137.691C138.568 140.281 138.155 150.64 137.742 157.978C137.453 163.119 136.481 223.448 136.863 272.342C136.944 282.788 134.5 290.489 133.249 296.295H266.938C266.938 296.295 265.691 291.197 265.382 278.697C264.126 227.914 263.891 160.306 263.341 156.28C262.516 150.237 269.002 145.033 261.971 141.991L218.453 124.602L175.553 127.842Z" fill="url(#paint1_linear_514_23758)"/>
<path d="M231.587 180.111C231.587 180.111 223.364 231.147 222.967 254.61C222.72 269.23 222.917 287.83 222.867 296.295H266.938L257.857 253.126L261.143 180.355L231.587 180.111Z" fill="url(#paint2_linear_514_23758)"/>
<path d="M181.239 102.966L185.441 142.222C185.441 142.222 184.977 153.954 191.738 153.949C215.447 153.932 220.547 132.858 219.773 130.056C218.663 126.041 214.12 95.579 214.12 95.579L181.239 102.966Z" fill="#FCA39B"/>
<path d="M185.706 140.286L181.498 106.073H199.97L185.706 140.286Z" fill="#E56441" stroke="#E56441"/>
<path d="M224.96 79.1521C224.007 63.7391 207.287 69.7051 204.45 70.8501C201.613 71.9951 193.48 50.2041 193.48 50.2041C193.48 50.2041 158.539 49.4571 152.198 56.6341C152.198 56.6341 152.058 85.721 154.159 104.008C156.259 122.295 162.625 129.637 169.385 129.219C178.712 129.428 189.162 125.921 195.389 120.807C206.482 111.696 209.667 97.853 209.667 97.853C209.872 97.719 209.984 97.6481 209.984 97.6481C209.984 97.6481 225.86 93.7091 224.96 79.1521Z" fill="#FCA39B"/>
<path d="M222.803 94.126C229.586 82.178 244.637 60.4369 217.937 35.2349C202.778 20.9259 145.508 22.2879 148.007 63.4599C148.262 67.6639 150.107 75.7969 152.544 78.8399L153.113 67.5109C154.617 58.7189 156.663 68.8659 167.571 68.4509C184.64 67.8019 186.027 59.7889 190.826 62.4089C200.326 67.5969 194.966 79.0929 197.007 82.3139C199.95 86.9579 201.276 81.9059 201.276 81.9059C206.061 76.8479 212.205 74.1889 216.54 79.6839C222.242 86.9109 208.294 99.6759 208.294 99.6759L216.172 110.89C220.37 109.849 222.812 94.1159 222.812 94.1159L222.803 94.126Z" fill="#080B09"/>
<path d="M179.895 86.1409C179.966 83.9239 178.846 82.0889 177.394 82.0419C175.941 81.9949 174.705 83.7549 174.634 85.9719C174.563 88.1899 175.683 90.0249 177.135 90.0719C178.588 90.1189 179.824 88.3589 179.895 86.1409Z" fill="#080B09"/>
<path d="M159.881 85.3699C159.952 83.1519 158.832 81.3169 157.379 81.2699C155.927 81.2239 154.691 82.9829 154.62 85.2009C154.548 87.4179 155.669 89.2539 157.121 89.2999C158.574 89.3469 159.81 87.5869 159.881 85.3699Z" fill="#080B09"/>
<path d="M164.727 90.3259C164.727 90.3259 167.962 94.4799 164.528 95.1879C161.225 95.7509 159.664 98.0389 163.505 100.225" stroke="#E56441" stroke-width="1.01075" stroke-linecap="round"/>
<path d="M164.802 104.412L164.819 104.411L164.835 104.409C166.906 104.178 171.04 103.716 173.796 103.455L173.801 103.454C173.876 103.447 173.951 103.459 174.019 103.491C174.087 103.523 174.145 103.573 174.186 103.636C174.228 103.699 174.252 103.772 174.255 103.846C174.257 103.918 174.241 103.989 174.208 104.053C173.733 104.82 173.094 105.745 172.348 106.578C171.594 107.421 170.757 108.139 169.897 108.521C169.057 108.896 168.212 108.945 167.363 108.489C166.486 108.017 165.532 106.968 164.595 104.976L164.578 104.939L164.556 104.906C164.524 104.86 164.505 104.806 164.501 104.749C164.497 104.693 164.509 104.637 164.534 104.587C164.559 104.536 164.597 104.493 164.644 104.463C164.691 104.432 164.746 104.414 164.802 104.412Z" fill="#E56441" stroke="#E56441"/>
<path d="M185.053 79.01L184.872 79.409C184.659 80.013 184.216 80.509 183.639 80.789C183.062 81.068 182.398 81.107 181.792 80.899L171.471 77.04C170.963 76.874 170.537 76.523 170.276 76.058C170.015 75.592 169.938 75.045 170.061 74.526C170.121 74.204 170.249 73.899 170.436 73.63C170.623 73.362 170.865 73.136 171.146 72.968C171.427 72.799 171.74 72.693 172.065 72.654C172.39 72.616 172.719 72.647 173.031 72.746L183.534 76.206C183.821 76.286 184.088 76.422 184.321 76.608C184.554 76.793 184.747 77.024 184.889 77.286C185.03 77.547 185.118 77.835 185.146 78.131C185.174 78.427 185.143 78.726 185.053 79.01Z" fill="#080B09"/>
<path d="M149.986 73.997L160.977 72.777C161.302 72.745 161.631 72.782 161.941 72.887C162.251 72.991 162.536 73.16 162.776 73.382C163.016 73.605 163.206 73.876 163.334 74.177C163.461 74.479 163.523 74.804 163.516 75.131C163.529 75.665 163.342 76.184 162.99 76.585C162.639 76.987 162.149 77.242 161.618 77.3L150.723 78.948C150.087 79.027 149.445 78.851 148.938 78.459C148.431 78.067 148.1 77.49 148.017 76.855L147.922 76.427C147.893 76.131 147.923 75.832 148.012 75.548C148.101 75.264 148.246 75 148.438 74.774C148.631 74.547 148.867 74.361 149.133 74.228C149.399 74.094 149.689 74.016 149.986 73.997Z" fill="#080B09"/>
<path d="M118.575 232.005H156.154C156.702 232.024 157.248 231.917 157.748 231.691C158.248 231.466 158.689 231.128 159.037 230.703C159.385 230.279 159.63 229.78 159.754 229.246C159.877 228.711 159.875 228.155 159.749 227.621L148.193 163.401C147.948 162.196 147.304 161.109 146.366 160.314C145.428 159.519 144.25 159.062 143.021 159.017H105.442C104.894 158.998 104.349 159.105 103.849 159.331C103.349 159.556 102.907 159.895 102.559 160.319C102.212 160.743 101.966 161.242 101.843 161.776C101.719 162.311 101.721 162.867 101.848 163.401L113.403 227.621C113.649 228.826 114.292 229.914 115.23 230.709C116.168 231.504 117.346 231.96 118.575 232.005Z" fill="#5CA4E6"/>
<path d="M116.889 232.005H154.468C155.016 232.024 155.561 231.917 156.061 231.691C156.561 231.466 157.003 231.128 157.35 230.703C157.698 230.279 157.944 229.78 158.067 229.246C158.19 228.711 158.189 228.155 158.062 227.621L146.507 163.401C146.261 162.196 145.618 161.109 144.68 160.314C143.742 159.519 142.563 159.062 141.335 159.017H103.756C103.208 158.998 102.662 159.105 102.162 159.331C101.662 159.556 101.221 159.895 100.873 160.319C100.525 160.743 100.28 161.242 100.156 161.776C100.033 162.311 100.035 162.867 100.161 163.401L111.717 227.621C111.962 228.826 112.606 229.914 113.544 230.709C114.482 231.504 115.66 231.96 116.889 232.005Z" fill="white"/>
<path d="M174.932 214.06L170.569 228.283C170.569 228.283 152.493 223.949 148.626 222.051C141.086 218.174 132.978 212.945 132.028 210.957C129.119 205.929 128.777 199.708 129.109 195.363C129.152 194.717 129.352 194.092 129.693 193.542C130.034 192.992 130.505 192.534 131.065 192.209C131.624 191.884 132.255 191.702 132.902 191.678C133.549 191.654 134.191 191.79 134.773 192.073L150.595 199.969C150.595 199.969 152.655 196.489 150.583 193.723C149.248 191.897 151.308 188.417 152.223 187.351C152.635 187.106 153.105 186.976 153.584 186.974C154.063 186.973 154.534 187.1 154.947 187.342C155.684 188.282 154.671 191.55 156.225 193.624C158.871 196.945 156.522 198.387 163.334 204.047C168.724 208.487 174.988 213.923 174.932 214.06Z" fill="#FCA39B"/>
<path d="M144.332 202.374C139.83 200.857 130.649 195.511 130.649 195.511" stroke="#E56441" stroke-width="1.17473" stroke-linecap="round" stroke-linejoin="round"/>
<path d="M144.924 208.377C141.301 207.059 131.733 201.875 131.733 201.875" stroke="#E56441" stroke-width="1.17473" stroke-linecap="round" stroke-linejoin="round"/>
<path d="M142.741 213.728C140.352 212.914 133.249 209.535 133.249 209.535" stroke="#E56441" stroke-width="1.17473" stroke-linecap="round" stroke-linejoin="round"/>
<path fill-rule="evenodd" clip-rule="evenodd" d="M228.456 172.522C230.211 183.208 236.302 209.594 241.703 232.292L174.018 206.763C173.366 206.546 172.657 206.578 172.027 206.853C171.398 207.128 170.892 207.626 170.608 208.252L161.882 227.768C161.474 228.707 161.431 229.764 161.759 230.733C162.087 231.703 162.764 232.516 163.658 233.014L261.331 287.377C265.046 290.003 269.581 291.545 274.476 291.545C287.07 291.545 297.28 281.335 297.28 268.741C297.28 265.208 296.477 261.864 295.044 258.879L294.34 254.929L289.895 229.943L285.154 203.228L284.73 200.048L279.4 164.902C279.4 164.902 279.333 164.94 279.208 165.004C278.953 160.944 277.728 156.885 275.451 153.176C268.015 141.063 252.167 137.272 240.054 144.709C230.353 150.664 225.989 162.015 228.456 172.522Z" fill="url(#paint3_linear_514_23758)"/>
<path d="M333.442 95.276H291.364" stroke="white" stroke-width="9.56968" stroke-miterlimit="10" stroke-linecap="round"/>
<path opacity="0.4" d="M337.087 115.955H250.129" stroke="white" stroke-width="9.56968" stroke-miterlimit="10" stroke-linecap="round"/>
<path d="M153.131 20.589C153.02 19.7116 154.019 19.1327 154.725 19.6652L172.428 33.0171C173 33.448 172.947 34.322 172.328 34.6808L157.405 43.3278C156.786 43.6866 156.002 43.2979 155.912 42.588L153.131 20.589Z" fill="#080B09"/>
<path d="M215.063 7.92402C215.721 7.33314 216.766 7.82467 216.731 8.70839L215.55 37.9809C215.521 38.6959 214.773 39.1501 214.125 38.8455L193.507 29.1455C192.859 28.8409 192.732 27.9746 193.264 27.4966L215.063 7.92402Z" fill="#080B09"/>
<path d="M243.904 41.2425C244.775 41.0905 245.4 42.0613 244.901 42.7916L232.394 61.1018C231.991 61.6926 231.115 61.6807 230.728 61.0791L221.39 46.5786C221.003 45.977 221.355 45.175 222.059 45.0521L243.904 41.2425Z" fill="#080B09"/>
<defs>
<linearGradient id="paint0_linear_514_23758" x1="104.333" y1="86.9281" x2="152.619" y2="399.294" gradientUnits="userSpaceOnUse">
<stop stop-color="white"/>
<stop offset="1" stop-color="#94B9FF"/>
</linearGradient>
<linearGradient id="paint1_linear_514_23758" x1="184.617" y1="69.9731" x2="257.257" y2="482.365" gradientUnits="userSpaceOnUse">
<stop stop-color="white"/>
<stop offset="1" stop-color="#94B9FF"/>
</linearGradient>
<linearGradient id="paint2_linear_514_23758" x1="239.571" y1="35.2851" x2="382.181" y2="370.912" gradientUnits="userSpaceOnUse">
<stop stop-color="white"/>
<stop offset="1" stop-color="#94B9FF"/>
</linearGradient>
<linearGradient id="paint3_linear_514_23758" x1="213.696" y1="92.97" x2="269.196" y2="457.582" gradientUnits="userSpaceOnUse">
<stop stop-color="white"/>
<stop offset="1" stop-color="#94B9FF"/>
</linearGradient>
</defs>
</svg>
