<svg width="936" height="778" viewBox="0 0 936 778" fill="none" xmlns="http://www.w3.org/2000/svg">
<path d="M475.196 658.554C671.203 658.554 830.1 653.879 830.1 648.113C830.1 642.346 671.203 637.671 475.196 637.671C279.189 637.671 120.294 642.346 120.294 648.113C120.294 653.879 279.189 658.554 475.196 658.554Z" fill="#F5F8FF"/>
<path d="M523.693 643.889H282.726C263.181 643.889 250.023 628.044 253.337 608.499L350.386 36.1481C353.7 16.6021 372.232 0.75708 391.777 0.75708H632.744C652.289 0.75708 665.447 16.6021 662.133 36.1481L565.084 608.499C561.77 628.044 543.238 643.889 523.693 643.889Z" fill="#5CA4E6"/>
<path d="M493.596 643.889H252.629C233.084 643.889 219.926 628.044 223.24 608.499L320.289 36.1481C323.603 16.6021 342.134 0.75708 361.68 0.75708H602.646C622.192 0.75708 635.35 16.6021 632.036 36.1481L534.987 608.499C531.673 628.044 513.141 643.889 493.596 643.889Z" fill="#D1E8F7"/>
<path d="M494.981 624.754H257.733C247.584 624.754 240.752 616.527 242.473 606.378L338.803 38.2681C340.524 28.1191 350.146 19.8921 360.295 19.8921H597.543C607.692 19.8921 614.524 28.1191 612.803 38.2681L516.473 606.378C514.752 616.527 505.13 624.754 494.981 624.754Z" fill="white"/>
<path d="M517.437 211.307H290.588L314.231 80.692C315.78 72.728 323.492 66.272 331.455 66.272H545.645C553.609 66.272 558.809 72.728 557.26 80.692L534.661 196.888C533.112 204.851 525.401 211.307 517.437 211.307Z" fill="url(#paint0_linear_514_23663)"/>
<path d="M499.153 194.5H159.546C151.583 194.5 146.382 188.044 147.931 180.08L170.53 63.8841C172.079 55.9201 179.79 49.4641 187.754 49.4641H527.361C535.324 49.4641 540.525 55.9201 538.976 63.8841L516.377 180.08C514.828 188.044 507.116 194.5 499.153 194.5Z" fill="#FEBB94"/>
<path d="M477.486 609.942L266.854 610.942C258.89 610.942 253.69 604.486 255.239 596.523L277.838 480.327C279.387 472.363 287.098 465.907 295.062 465.907L505.694 464.907C513.658 464.907 518.858 471.363 517.309 479.327L494.71 595.523C493.161 603.486 485.45 609.942 477.486 609.942Z" fill="#FEBB94"/>
<path d="M290.02 574.756C296.013 527.879 340.553 489.877 389.503 489.877C438.453 489.877 473.276 527.879 467.283 574.756" stroke="#FF967C" stroke-width="16.5208" stroke-miterlimit="10" stroke-linecap="round"/>
<path d="M290.02 574.756C296.013 527.879 340.553 489.877 389.503 489.877C413.73 489.877 434.497 499.186 448.567 514.273" stroke="white" stroke-width="16.5208" stroke-miterlimit="10" stroke-linecap="round"/>
<path d="M452.298 448.479H301.48C293.43 448.479 287.989 441.953 289.328 433.903L321.18 242.311C322.518 234.261 330.129 227.736 338.179 227.736H488.996C497.046 227.736 502.487 234.261 501.149 242.311L469.296 433.903C467.958 441.953 460.348 448.479 452.298 448.479Z" fill="url(#paint1_linear_514_23663)"/>
<path d="M347.922 329.051H327.359C326.228 329.09 325.143 329.512 324.284 330.248C323.425 330.985 322.842 331.993 322.632 333.105L311.464 400.282C311.355 400.779 311.362 401.295 311.483 401.789C311.605 402.283 311.837 402.743 312.163 403.134C312.489 403.525 312.9 403.837 313.364 404.045C313.829 404.253 314.335 404.352 314.843 404.335H335.406C336.538 404.297 337.622 403.875 338.481 403.138C339.341 402.401 339.923 401.394 340.134 400.282L351.302 333.105C351.41 332.608 351.403 332.092 351.282 331.598C351.161 331.103 350.928 330.643 350.602 330.252C350.277 329.861 349.866 329.55 349.401 329.342C348.937 329.134 348.431 329.034 347.922 329.051Z" fill="white"/>
<path d="M385.44 352.036H364.877C363.745 352.074 362.661 352.496 361.802 353.233C360.942 353.97 360.36 354.977 360.149 356.089L352.802 400.282C352.694 400.779 352.701 401.295 352.822 401.789C352.943 402.283 353.176 402.743 353.502 403.134C353.828 403.525 354.238 403.837 354.703 404.045C355.167 404.253 355.673 404.352 356.182 404.335H376.745C377.876 404.297 378.961 403.875 379.82 403.138C380.679 402.401 381.262 401.394 381.472 400.282L388.819 356.089C388.928 355.592 388.921 355.076 388.8 354.582C388.678 354.088 388.446 353.628 388.12 353.237C387.794 352.846 387.383 352.534 386.919 352.326C386.454 352.118 385.948 352.019 385.44 352.036Z" fill="white"/>
<path d="M435.105 287.367H414.542C413.411 287.405 412.327 287.827 411.467 288.564C410.608 289.301 410.025 290.308 409.815 291.42L391.717 400.282C391.609 400.779 391.615 401.295 391.737 401.789C391.858 402.283 392.09 402.743 392.416 403.134C392.742 403.525 393.153 403.837 393.617 404.045C394.082 404.253 394.588 404.352 395.096 404.335H415.659C416.791 404.297 417.875 403.875 418.734 403.138C419.594 402.401 420.176 401.394 420.387 400.282L438.485 291.42C438.593 290.923 438.586 290.407 438.465 289.913C438.344 289.419 438.112 288.959 437.786 288.568C437.46 288.177 437.049 287.865 436.584 287.657C436.12 287.449 435.614 287.35 435.105 287.367Z" fill="white"/>
<path d="M470.491 315.586H449.928C448.797 315.624 447.712 316.046 446.853 316.783C445.994 317.52 445.411 318.527 445.201 319.639L431.794 400.282C431.686 400.779 431.692 401.295 431.814 401.789C431.935 402.283 432.167 402.743 432.493 403.134C432.819 403.525 433.23 403.837 433.694 404.045C434.159 404.253 434.665 404.352 435.173 404.335H455.736C456.868 404.297 457.952 403.875 458.812 403.138C459.671 402.401 460.254 401.394 460.464 400.282L473.871 319.639C473.979 319.142 473.972 318.626 473.851 318.132C473.73 317.638 473.497 317.178 473.171 316.787C472.845 316.396 472.435 316.084 471.97 315.876C471.506 315.668 471 315.569 470.491 315.586Z" fill="white"/>
<path d="M336.231 251.306H391.905" stroke="white" stroke-width="10" stroke-miterlimit="10" stroke-linecap="round"/>
<path d="M333.088 270.21H360.925" stroke="white" stroke-width="10" stroke-miterlimit="10" stroke-linecap="round"/>
<path opacity="0.6" d="M317.465 418.025H328.233" stroke="white" stroke-width="6" stroke-miterlimit="10" stroke-linecap="round"/>
<path opacity="0.6" d="M358.804 418.025H369.571" stroke="white" stroke-width="6" stroke-miterlimit="10" stroke-linecap="round"/>
<path opacity="0.6" d="M397.718 418.025H408.486" stroke="white" stroke-width="6" stroke-miterlimit="10" stroke-linecap="round"/>
<path opacity="0.6" d="M437.795 418.025H448.563" stroke="white" stroke-width="6" stroke-miterlimit="10" stroke-linecap="round"/>
<path d="M650.128 448.479H499.311C491.261 448.479 485.82 441.953 487.158 433.903L519.011 242.311C520.349 234.261 527.959 227.736 536.009 227.736H686.827C694.877 227.736 700.318 234.261 698.979 242.311L667.127 433.903C665.789 441.953 658.178 448.479 650.128 448.479Z" fill="url(#paint2_linear_514_23663)"/>
<path d="M541.846 357.934H521.283C520.152 357.972 519.067 358.394 518.208 359.131C517.349 359.868 516.766 360.875 516.556 361.987L509.294 400.282C509.186 400.779 509.193 401.295 509.314 401.789C509.435 402.283 509.668 402.743 509.994 403.134C510.32 403.525 510.73 403.837 511.195 404.045C511.659 404.253 512.165 404.352 512.674 404.335H533.237C534.368 404.297 535.453 403.875 536.312 403.138C537.171 402.401 537.754 401.394 537.964 400.282L545.226 361.987C545.334 361.49 545.327 360.974 545.206 360.48C545.085 359.986 544.852 359.526 544.526 359.135C544.2 358.744 543.79 358.432 543.325 358.224C542.861 358.016 542.355 357.917 541.846 357.934Z" fill="white"/>
<path d="M591.036 298.635H570.473C569.342 298.673 568.258 299.095 567.398 299.832C566.539 300.569 565.956 301.576 565.746 302.688L550.633 400.282C550.525 400.779 550.532 401.295 550.653 401.789C550.774 402.283 551.006 402.743 551.332 403.134C551.658 403.525 552.069 403.837 552.534 404.045C552.998 404.253 553.504 404.352 554.013 404.335H574.576C575.707 404.297 576.791 403.875 577.651 403.138C578.51 402.401 579.093 401.394 579.303 400.282L594.416 302.688C594.524 302.191 594.517 301.675 594.396 301.181C594.275 300.687 594.043 300.227 593.717 299.836C593.391 299.445 592.98 299.133 592.515 298.925C592.051 298.717 591.545 298.618 591.036 298.635Z" fill="white"/>
<path d="M626.132 326.5H605.569C604.438 326.538 603.354 326.96 602.494 327.697C601.635 328.434 601.052 329.441 600.842 330.553L589.547 400.282C589.439 400.779 589.446 401.295 589.567 401.789C589.688 402.283 589.921 402.743 590.247 403.134C590.573 403.525 590.984 403.837 591.448 404.045C591.913 404.253 592.418 404.352 592.927 404.335H613.49C614.621 404.297 615.706 403.875 616.565 403.138C617.424 402.401 618.007 401.394 618.217 400.282L629.512 330.553C629.62 330.056 629.613 329.54 629.492 329.046C629.371 328.552 629.139 328.092 628.813 327.701C628.487 327.31 628.076 326.998 627.611 326.79C627.147 326.582 626.641 326.483 626.132 326.5Z" fill="white"/>
<path d="M668.322 315.586H647.759C646.627 315.624 645.543 316.046 644.684 316.783C643.824 317.52 643.242 318.527 643.031 319.639L629.625 400.282C629.516 400.779 629.523 401.295 629.644 401.789C629.765 402.283 629.998 402.743 630.324 403.134C630.65 403.525 631.061 403.837 631.525 404.045C631.99 404.253 632.495 404.352 633.004 404.335H653.567C654.698 404.297 655.783 403.875 656.642 403.138C657.501 402.401 658.084 401.394 658.294 400.282L671.701 319.639C671.809 319.142 671.803 318.626 671.682 318.132C671.56 317.638 671.328 317.178 671.002 316.787C670.676 316.396 670.265 316.084 669.801 315.876C669.336 315.668 668.83 315.569 668.322 315.586Z" fill="white"/>
<path d="M534.062 251.306H589.735" stroke="white" stroke-width="10" stroke-miterlimit="10" stroke-linecap="round"/>
<path d="M530.919 270.21H558.756" stroke="white" stroke-width="10" stroke-miterlimit="10" stroke-linecap="round"/>
<path opacity="0.6" d="M515.296 418.025H526.063" stroke="white" stroke-width="6" stroke-miterlimit="10" stroke-linecap="round"/>
<path opacity="0.6" d="M556.635 418.025H567.402" stroke="white" stroke-width="6" stroke-miterlimit="10" stroke-linecap="round"/>
<path opacity="0.6" d="M595.549 418.025H606.317" stroke="white" stroke-width="6" stroke-miterlimit="10" stroke-linecap="round"/>
<path opacity="0.6" d="M635.626 418.025H646.394" stroke="white" stroke-width="6" stroke-miterlimit="10" stroke-linecap="round"/>
<path d="M9.95579 663.799L52.7818 753.39L47.4708 755.929C45.6778 756.786 43.6188 756.896 41.7458 756.234C39.8728 755.573 38.3388 754.194 37.4828 752.402L1.1158 676.327C0.259795 674.534 0.149802 672.475 0.810802 670.602C1.4728 668.729 2.85081 667.195 4.64381 666.338L9.95579 663.799Z" fill="#71C8EA"/>
<path d="M56.5814 643.569L27.0254 655.787L43.6064 679.235L69.8084 671.24L56.5814 643.569Z" fill="#FFCCB3"/>
<path d="M37.7024 656.723C37.7024 656.723 49.2414 674.545 50.9824 684.504C52.7234 694.462 58.6844 744.836 57.0804 749.377C55.9274 752.641 51.7394 754.042 49.0824 754.338C48.4994 754.4 47.9114 754.279 47.4004 753.992C46.8894 753.705 46.4794 753.266 46.2294 752.736L7.35439 671.411C6.70439 670.054 6.61339 668.497 7.09939 667.074C7.58639 665.65 8.61138 664.475 9.95638 663.799C15.3344 661.097 23.5614 657.048 27.0254 655.787C32.3794 653.838 35.9134 653.85 37.7024 656.723Z" fill="#5661AE"/>
<path d="M246.929 699.359L206.766 773.499C205.819 775.246 204.218 776.545 202.314 777.111C200.41 777.677 198.359 777.464 196.612 776.517L191.435 773.713L238.735 686.401L243.911 689.205C245.658 690.151 246.957 691.752 247.523 693.657C248.089 695.561 247.876 697.612 246.929 699.359Z" fill="#71C8EA"/>
<path d="M193.191 663.84L222.092 677.536L204.347 700.116L178.582 690.807L193.191 663.84Z" fill="#FFCCB3"/>
<path d="M211.381 677.931C211.381 677.931 198.956 695.147 196.714 705.005C194.473 714.863 185.974 764.871 187.346 769.488C188.332 772.806 192.444 774.416 195.083 774.846C195.662 774.938 196.255 774.847 196.78 774.586C197.305 774.325 197.736 773.907 198.013 773.391L240.949 694.134C241.666 692.812 241.836 691.261 241.422 689.815C241.008 688.369 240.043 687.143 238.735 686.401C233.5 683.43 225.487 678.97 222.092 677.536C216.843 675.319 213.313 675.153 211.381 677.931Z" fill="#5661AE"/>
<path d="M280.26 558.227C280.26 558.227 291.324 613.17 282.738 623.936L63.9529 679.958L45.2959 645.011L173.057 587.036L198.644 551.966L280.26 558.227Z" fill="#D1E8F7"/>
<path d="M224.896 597.432L176.624 613.577L154.099 623.022L183.391 649.375L157.203 655.291L85.7725 597.432H224.896Z" fill="#5CA4E6"/>
<path d="M59.0049 640.428L60.4899 645.588L94.4099 672.064L126.273 664.289C126.273 664.289 64.8059 635.037 59.0049 640.428Z" fill="#5CA4E6"/>
<path d="M120.411 555.022C120.411 555.022 58.5459 551.666 27.8819 554.362C8.1369 556.097 1.01891 606.624 16.7759 615.816L185.882 702.402L205.81 666.393L96.7209 592.551L174.766 581.573L120.411 555.022Z" fill="#D1E8F7"/>
<path d="M33.082 620.118C51.352 620.118 66.163 605.307 66.163 587.036C66.163 568.766 51.352 553.954 33.082 553.954C14.811 553.954 0 568.766 0 587.036C0 605.307 14.811 620.118 33.082 620.118Z" fill="#D1E8F7"/>
<path d="M277.242 624.39C295.512 624.39 310.323 609.579 310.323 591.309C310.323 573.038 295.512 558.227 277.242 558.227C258.971 558.227 244.16 573.038 244.16 591.309C244.16 609.579 258.971 624.39 277.242 624.39Z" fill="#D1E8F7"/>
<path d="M186.62 435.202C183.135 417.997 191.331 418.44 194.059 415.705C194.059 415.705 204.291 407.267 212.088 415.132C220.341 423.452 267.65 488.083 267.65 488.083L238.049 515.308L232.485 508.668L218.072 491.478L202.656 473.106L200.741 471.015L179.945 447.46C179.945 447.46 188.591 444.26 186.62 435.202Z" fill="#5661AE"/>
<path d="M203.036 452.48C214.95 448.49 221.372 435.598 217.382 423.684C213.392 411.771 200.5 405.348 188.586 409.338C176.673 413.329 170.25 426.221 174.241 438.134C178.231 450.047 191.123 456.47 203.036 452.48Z" fill="#5661AE"/>
<path d="M201.014 470.923C200.417 467.327 199.223 460.135 197.938 453.58L191.109 421.855C191.109 421.855 209.451 448.965 217.902 467.848C224.16 481.999 231.42 496.422 232.621 508.622L218.209 491.433L202.793 473.061L201.014 470.923Z" fill="#465393"/>
<path d="M297.217 415.32C304.251 402.49 300.871 400.312 303.863 393.013C306.811 385.89 301.577 368.233 306.588 370.641C311.598 373.048 313.149 379.447 313.149 379.447C316.576 373.384 319.732 362.23 327.935 360.953C336.14 359.677 336.866 362.259 341.516 366.075C353.887 376.368 338.112 391.837 335.479 397.727C333.785 401.42 321.338 412.677 319.959 415.137L313.694 424.225L297.217 415.32Z" fill="#FFCCB3"/>
<path d="M321.386 380.242L331.383 361.785L321.386 380.242Z" fill="#E56441"/>
<path d="M321.386 380.242L331.383 361.785" stroke="#E56441" stroke-width="0.94666" stroke-linecap="round"/>
<path d="M327.936 383.231L338.832 366.041L327.936 383.231Z" fill="#E56441"/>
<path d="M327.936 383.231L338.832 366.041" stroke="#E56441" stroke-width="0.94666" stroke-linecap="round"/>
<path d="M335.718 386.535L341.945 376.125L335.718 386.535Z" fill="#E56441"/>
<path d="M335.718 386.535L341.945 376.125" stroke="#E56441" stroke-width="0.94666" stroke-linecap="round"/>
<path d="M318.916 396.49C318.863 390.099 315.028 382.366 315.028 382.366L318.916 396.49Z" fill="#E56441"/>
<path d="M318.916 396.49C318.863 390.099 315.028 382.366 315.028 382.366" stroke="#E56441" stroke-width="0.94666" stroke-linecap="round"/>
<path d="M237.798 487.568L297.991 407.409C298.374 406.938 298.919 406.626 299.519 406.532C300.119 406.439 300.733 406.571 301.241 406.903L317.003 417.327C317.752 417.834 318.285 418.602 318.5 419.481C318.715 420.36 318.595 421.287 318.164 422.083L269.758 511.352L237.798 487.568Z" fill="#5661AE"/>
<path d="M252.423 521.426C263.556 521.426 272.581 512.401 272.581 501.268C272.581 490.136 263.556 481.111 252.423 481.111C241.291 481.111 232.266 490.136 232.266 501.268C232.266 512.401 241.291 521.426 252.423 521.426Z" fill="#5661AE"/>
<path d="M163.037 397.986C163.037 397.986 196.816 406.925 202.614 409.244C208.413 411.564 208.799 420.841 209.186 427.413C209.572 433.985 208.274 581.573 208.274 581.573L133.518 578.698L77.6123 545.973C77.6123 545.973 80.0433 428.867 80.8163 423.455C81.5893 418.043 75.5143 413.383 82.0993 410.658L124.429 399.476L163.037 397.986Z" fill="#5661AE"/>
<path d="M106.784 450.562L107.386 559.606L75.248 523.786L90.7971 447.169L106.784 450.562Z" fill="#465393"/>
<path d="M118.916 401.143C118.916 401.143 114.134 410.76 118.916 417.394C123.698 424.028 142.842 430.473 155.921 430.283C168.999 430.094 175.929 417.624 170 400.166L148.339 394.081L124.429 399.476L118.916 401.143Z" fill="#465393"/>
<path d="M173.058 318.259C173.058 318.259 182.476 338.582 172.431 342.78C162.386 346.978 163.556 319.245 173.058 318.259Z" fill="#93523E"/>
<path d="M162.434 383.291L165.159 414.015C165.159 414.015 167.771 418.134 157.598 420.297C151.054 421.688 133.432 414.745 130.013 412.662C128.559 411.89 127.42 410.636 126.792 409.115C126.164 407.593 126.086 405.901 126.571 404.328C127.61 400.568 131.916 369.246 131.916 369.246L162.434 383.291Z" fill="#FFCCB3"/>
<path d="M162.959 389.214L146.727 381.195L164.823 410.227L162.959 389.214Z" fill="#FF967C"/>
<path d="M167.649 324.14C167.649 324.14 177.175 348.031 180.63 364.79C184.116 381.699 178.554 385.922 171.215 388.408C165.426 390.37 156.182 391.934 149.894 389.965C138.427 386.375 127.209 376.014 124.526 373.886C120.372 370.591 116.271 355.645 122.359 347.19C128.448 338.734 152.437 312.162 167.649 324.14Z" fill="#FFCCB3"/>
<path d="M155.385 357.116C156.652 356.617 157.062 354.646 156.301 352.712C155.54 350.778 153.897 349.615 152.63 350.113C151.363 350.612 150.953 352.583 151.713 354.517C152.474 356.451 154.118 357.614 155.385 357.116Z" fill="#080B09"/>
<path d="M172.797 350.138C174.064 349.64 174.474 347.668 173.713 345.735C172.953 343.801 171.309 342.638 170.042 343.136C168.775 343.635 168.365 345.606 169.126 347.54C169.886 349.473 171.53 350.637 172.797 350.138Z" fill="#080B09"/>
<path d="M166.411 353.437C166.411 353.437 164.864 358.119 168.116 357.663C171.207 357.121 173.305 358.648 170.604 361.785" fill="#E56441"/>
<path d="M166.411 353.437C166.411 353.437 164.864 358.119 168.116 357.663C171.207 357.121 173.305 358.648 170.604 361.785" stroke="#E56441" stroke-width="0.94666" stroke-linecap="round"/>
<path d="M162.649 371.074L162.633 371.077L162.617 371.082C162.572 371.096 162.524 371.097 162.479 371.086C162.433 371.076 162.391 371.053 162.357 371.02C162.323 370.987 162.298 370.946 162.285 370.901C162.273 370.855 162.272 370.807 162.284 370.762L162.294 370.723L162.298 370.683C162.497 368.634 163.007 367.416 163.626 366.732C164.224 366.07 164.974 365.85 165.825 365.915C166.698 365.982 167.657 366.35 168.586 366.855C169.504 367.354 170.357 367.967 171.016 368.493C171.061 368.535 171.094 368.587 171.112 368.646C171.132 368.707 171.134 368.773 171.118 368.836C171.103 368.898 171.07 368.956 171.025 369.001C170.979 369.047 170.922 369.079 170.859 369.094L170.854 369.095C168.34 369.732 164.548 370.626 162.649 371.074Z" fill="#E56441" stroke="#E56441"/>
<path d="M144.355 352.302L144.671 352.564C145.099 352.985 145.676 353.22 146.276 353.218C146.876 353.216 147.452 352.975 147.876 352.551L154.974 345.059C155.333 344.711 155.547 344.24 155.576 343.741C155.603 343.242 155.444 342.751 155.126 342.364C154.943 342.118 154.711 341.914 154.442 341.765C154.175 341.616 153.879 341.525 153.573 341.499C153.268 341.472 152.96 341.512 152.671 341.613C152.381 341.715 152.117 341.876 151.894 342.087L144.48 349.318C144.272 349.503 144.103 349.728 143.982 349.98C143.863 350.232 143.795 350.505 143.784 350.784C143.773 351.062 143.817 351.34 143.915 351.601C144.013 351.861 144.163 352.1 144.355 352.302Z" fill="#080B09"/>
<path d="M174.709 335.047L164.397 336.002C164.092 336.034 163.797 336.131 163.532 336.285C163.267 336.439 163.038 336.648 162.86 336.898C162.682 337.147 162.559 337.431 162.499 337.732C162.439 338.033 162.443 338.343 162.511 338.641C162.6 339.133 162.87 339.574 163.268 339.876C163.667 340.179 164.164 340.32 164.662 340.273L174.968 339.728C175.566 339.68 176.122 339.398 176.513 338.943C176.904 338.487 177.099 337.896 177.055 337.297L177.062 336.887C177.033 336.609 176.948 336.341 176.813 336.097C176.678 335.853 176.495 335.639 176.276 335.467C176.056 335.295 175.804 335.17 175.535 335.097C175.266 335.025 174.985 335.008 174.709 335.047Z" fill="#080B09"/>
<path d="M155.826 328.907C155.826 328.907 150.679 338.701 141.341 341.605C132.003 344.51 137.106 359.248 137.106 359.248C137.106 359.248 130.703 352.878 123.343 356.464C115.982 360.049 121.569 374.121 131.738 374.3L128.972 390.134C128.972 390.134 123.822 383.721 118.406 380.289C112.989 376.857 93.5317 363.536 102.127 345.991C102.127 345.991 95.4017 321.356 113.846 308.583C132.29 295.811 148.254 300.631 148.254 300.631C148.254 300.631 152.651 293.656 162.843 295.08C173.035 296.505 175.385 314.883 172.01 321.53C168.635 328.177 163.135 331.002 155.826 328.907Z" fill="#93523E"/>
<path d="M78.9836 427.1C91.9546 415.27 95.7846 422.529 99.5336 423.464C99.5336 423.464 112.03 427.907 109.288 438.638C106.39 449.993 75.2476 523.786 75.2476 523.786L36.6826 512.378L39.5206 504.193L46.8626 482.997L54.7046 460.332L55.5146 457.614L65.0386 427.671C65.0386 427.671 72.2256 433.444 78.9836 427.1Z" fill="#5661AE"/>
<path d="M104.671 447.574C112.842 438.029 111.728 423.669 102.184 415.498C92.6401 407.327 78.2791 408.441 70.1091 417.985C61.9381 427.529 63.0511 441.89 72.5961 450.061C82.1401 458.231 96.5001 457.118 104.671 447.574Z" fill="#5661AE"/>
<path d="M71.4299 505.661L143.028 575.821C143.445 576.263 143.683 576.844 143.697 577.451C143.711 578.058 143.5 578.649 143.104 579.11L130.709 593.372C130.108 594.049 129.277 594.477 128.377 594.575C127.478 594.673 126.574 594.433 125.842 593.902L43.6709 534.236L71.4299 505.661Z" fill="#5661AE"/>
<path d="M55.9343 538.526C67.0673 538.526 76.0923 529.502 76.0923 518.369C76.0923 507.236 67.0673 498.212 55.9343 498.212C44.8023 498.212 35.7773 507.236 35.7773 518.369C35.7773 529.502 44.8023 538.526 55.9343 538.526Z" fill="#5661AE"/>
<path d="M172.418 492.146L133.561 599.799H55.4326C55.4326 596.512 56.7386 593.359 59.0626 591.035C61.3876 588.71 64.5396 587.405 67.8266 587.405H124.35L157.903 492.146H172.418Z" fill="white"/>
<path d="M172.418 492.146H277.242L236.702 599.799H133.561L172.418 492.146Z" fill="url(#paint3_linear_514_23663)"/>
<path d="M318.787 141.068C318.787 141.068 336.253 137.389 341.793 145.883C347.333 154.377 352.873 170.334 365.43 168.265C377.987 166.196 387.589 124.462 400.146 124.832C412.703 125.201 407.163 152.531 420.828 152.9C434.493 153.269 431.169 137.758 442.249 137.758C453.329 137.758 449.635 170.997 464.039 171.366C478.443 171.736 476.965 128.525 498.755 129.263" stroke="white" stroke-width="5" stroke-miterlimit="10" stroke-linecap="round"/>
<path d="M267.801 135.326C276.696 113.477 268.132 89.343 248.673 81.421C229.214 73.499 206.229 84.789 197.334 106.638C188.439 128.487 197.003 152.621 216.462 160.543C235.921 168.465 258.907 157.175 267.801 135.326Z" stroke="#FF967C" stroke-width="16.5208" stroke-miterlimit="10" stroke-linecap="round"/>
<path d="M250.686 156.468C240.419 163.24 227.838 165.174 216.462 160.543C197.003 152.621 188.439 128.487 197.334 106.638C206.229 84.789 229.214 73.499 248.673 81.421" stroke="white" stroke-width="16.5208" stroke-miterlimit="10" stroke-linecap="round"/>
<path d="M331.915 78.8889H408.771" stroke="white" stroke-width="10" stroke-miterlimit="10" stroke-linecap="round"/>
<path opacity="0.6" d="M328.273 100.089H359.542" stroke="white" stroke-width="10" stroke-miterlimit="10" stroke-linecap="round"/>
<path d="M913.78 605.813C913.56 605.837 913.459 605.96 913.579 606.059C913.479 606.181 913.48 606.181 913.51 606.403C913.04 607.927 912.71 609.49 912.52 611.073L931.479 626.312L933.579 623.953C933.579 623.953 926.579 615.296 923.959 612.778C922.829 611.668 921.82 610.656 920.81 609.645C919.93 608.732 919.14 607.696 918.38 606.882C917.32 605.427 914.249 605.986 914.219 605.764C914.099 605.666 913.78 605.813 913.78 605.813Z" fill="#233B62"/>
<path d="M770.41 473.402L788.72 491.145L891.09 590.005L892.96 591.708L893.77 592.965L893.89 593.064L908.39 615.034L910.01 617.548L910.55 618.386L920.36 633.353L912.28 637.373L909.94 638.525L906.64 640.118L901.43 642.815L901.34 642.937L895.81 645.781L895.54 645.362L882.94 621.279C880.5 616.627 877.07 612.562 872.9 609.365L761.58 524.15L740.422 507.951L770.41 473.402Z" fill="#FFCCB3"/>
<path d="M906.99 593.881C902.08 591.602 896.569 589.564 891.189 589.882C894.429 592.724 895.91 597.782 898.06 601.469C902.47 609.058 913.78 623.162 908 635.147C904.75 641.882 895.67 645.46 895.54 645.361C894.02 652.278 886.49 680.432 901.51 664.112C909.9 654.998 918.22 645.262 922.4 635.598C924.12 631.636 920.489 627.684 918.709 624.339C916.429 619.277 913.029 612.573 913.459 606.969L913.55 606.846C913.8 606.459 933.249 623.871 933.579 623.953C934.249 622.871 935.81 620.684 935.81 620.684C935.81 620.684 907.92 594.228 906.99 593.881Z" fill="#1C85E8"/>
<path d="M697.52 685.977C697.345 685.839 697.188 685.858 697.207 686.014C697.051 686.033 697.051 686.033 696.913 686.209C695.514 686.972 694.185 687.859 692.943 688.858L695.841 713.012L698.99 712.793C698.99 712.793 700.043 701.711 699.924 698.073C699.893 696.489 699.88 695.062 699.867 693.634C699.874 692.363 700.037 691.073 700.062 689.959C700.325 688.181 697.733 686.428 697.871 686.252C697.852 686.096 697.52 685.977 697.52 685.977Z" fill="#233B62"/>
<path d="M687.635 491.071L688.31 516.553L692.355 658.81L692.5 661.333L692.199 662.798L692.218 662.955L687.22 688.8L686.62 691.73L686.419 692.707L682.969 710.269L674.378 707.489L671.899 706.675L668.425 705.504L662.821 703.795L662.665 703.813L656.729 701.985L656.83 701.496L664.663 675.47C666.168 670.434 666.561 665.132 665.815 659.93L645.835 521.173L642.035 494.794L687.635 491.071Z" fill="#FFCCB3"/>
<path d="M701.008 672.697C699.094 667.637 696.582 662.329 692.512 658.791C692.844 663.093 690.364 667.743 689.318 671.877C687.166 680.388 685.389 698.38 672.876 702.906C665.845 705.449 656.848 701.653 656.829 701.496C650.906 705.377 625.831 720.233 647.981 719.071C660.351 718.422 673.108 717.282 682.856 713.3C686.853 711.667 687.024 706.305 688.09 702.669C690.002 697.457 692.254 690.283 696.48 686.578L696.637 686.559C697.085 686.455 698.811 712.503 698.99 712.793C700.224 712.486 702.866 712.01 702.866 712.01C702.866 712.01 701.433 673.599 701.008 672.697Z" fill="#1C85E8"/>
<path d="M660.054 299.878L623.865 452.698L623.799 463.547L653.226 644.501L700.08 639.429L686.488 466.608L723.765 376.437L716.229 302.491L660.054 299.878Z" fill="#1F2D49"/>
<path d="M654.988 489.816C672.464 489.816 686.632 475.649 686.632 458.172C686.632 440.696 672.464 426.528 654.988 426.528C637.511 426.528 623.344 440.696 623.344 458.172C623.344 475.649 637.511 489.816 654.988 489.816Z" fill="#1F2D49"/>
<path d="M698.365 437.879L689.44 362.374L686.488 466.608L698.365 437.879Z" fill="#0D1B33"/>
<path d="M757.74 299.401C757.74 299.401 774.61 327.747 774.83 351.485C775.17 387.113 762.32 450.996 762.32 450.996L874.51 564.393L847.8 604.44C847.8 604.44 752.07 525.009 711.565 487.28L702.492 468.911L689.44 362.374L709.39 299.401H757.74Z" fill="#1F2D49"/>
<path d="M660.054 299.878L758.32 300.888L767.87 320.65L658.394 306.891L660.054 299.878Z" fill="#0D1B33"/>
<path d="M733.854 496.463C751.33 496.463 765.5 482.296 765.5 464.819C765.5 447.343 751.33 433.175 733.854 433.175C716.377 433.175 702.21 447.343 702.21 464.819C702.21 482.296 716.377 496.463 733.854 496.463Z" fill="#1F2D49"/>
<path d="M648.583 89.8781C648.583 89.8781 649.902 104.567 646.026 118.687C642.15 132.807 612.803 162.707 638.828 187.071C664.853 211.434 696.691 146.096 696.691 146.096L686.724 115.918L652.258 80.0601L648.583 89.8781Z" fill="#1F2D49"/>
<path d="M727.984 93.3071C727.984 93.3071 735.794 103.229 753.59 111.339C771.05 119.298 789.85 132.38 785.98 160.896C782.1 189.412 730.482 167.264 715.317 150.929C700.152 134.595 702.239 105.431 702.239 105.431L727.984 93.3071Z" fill="#1F2D49"/>
<path d="M688.062 146.74C688.062 146.74 668.252 154.578 665.228 156.997C662.204 159.417 659.332 179.164 654.19 188.539C649.049 197.915 641.527 215.22 652.513 231.116C663.499 247.011 662.331 259.633 662.331 259.633L659.993 299.507L754.67 301.252C755.51 301.279 756.34 301.127 757.11 300.809C757.88 300.491 758.57 300.012 759.15 299.405C759.72 298.799 760.15 298.077 760.43 297.289C760.7 296.501 760.8 295.663 760.73 294.833C759.68 283.207 754.87 266.881 754.49 248.369C753.98 223.281 753.6 139.453 753.6 139.453L712.352 138.158C704.044 139.591 688.062 146.74 688.062 146.74Z" fill="#FEBB94"/>
<path d="M737.364 173.72C737.364 173.72 723.566 186.301 722.754 195.635C721.943 204.969 720.066 230.994 702.333 233.59C680.598 236.772 674.909 239.87 684.985 242.305C695.06 244.74 717.928 240.795 717.928 251.233C717.928 258.662 726.812 264.219 731.277 260.161C735.741 256.103 771.3 194.417 737.364 173.72Z" fill="#FF967C"/>
<path d="M570.953 184.265L563.473 174.69C561.907 172.449 559.825 170.617 557.402 169.35C553.721 167.507 548.078 164.069 546.117 160.633C542.867 155.171 530.059 140.418 541.169 128.951C545.282 124.719 544.254 125.72 552.475 125.847C560.696 125.973 561.958 134.504 566.066 140.088C566.066 140.088 566.989 133.647 571.53 130.704C576.072 127.761 573.058 145.736 576.552 152.548C580.045 159.36 577.222 161.935 585.499 173.903L570.953 184.265Z" fill="#FFCCB3"/>
<path d="M551.224 126.83L557.905 141.987L551.224 126.83Z" fill="#E56441"/>
<path d="M551.224 126.83L557.905 141.987" stroke="#E56441" stroke-width="0.94666" stroke-linecap="round"/>
<path d="M542.511 129.525L551.768 145.665L542.511 129.525Z" fill="#E56441"/>
<path d="M542.511 129.525L551.768 145.665" stroke="#E56441" stroke-width="0.94666" stroke-linecap="round"/>
<path d="M537.045 140.137L544.342 149.772L537.045 140.137Z" fill="#E56441"/>
<path d="M537.045 140.137L544.342 149.772" stroke="#E56441" stroke-width="0.94666" stroke-linecap="round"/>
<path d="M564.347 143.523C564.347 143.523 561.52 151.621 562.009 158.002L564.347 143.523Z" fill="#E56441"/>
<path d="M564.347 143.523C564.347 143.523 561.52 151.621 562.009 158.002" stroke="#E56441" stroke-width="0.94666" stroke-linecap="round"/>
<path d="M670.041 154.389C662.361 157.051 651.656 162.45 648.758 168.474L623.161 226.786L580.532 162.012L564.389 179.015L604.2 261.356C611.475 279.463 629.955 286.266 643.341 266.751L664.729 233.158L670.041 154.389Z" fill="#FEBB94"/>
<path d="M659.125 204.586C659.125 204.586 656.817 200.605 656.817 221.386L643.342 266.751L664.729 233.158C681.887 210.09 668.332 203.929 659.125 204.586Z" fill="#FF967C"/>
<path d="M706.053 177.073L635.345 205.237C633.148 206.112 632.077 208.603 632.952 210.799L668.342 299.647C669.217 301.844 671.707 302.916 673.904 302.041L744.612 273.876C746.809 273.001 747.88 270.511 747.005 268.314L711.615 179.466C710.74 177.269 708.25 176.198 706.053 177.073Z" fill="#1C85E8"/>
<path d="M646.134 213.594L675.291 201.98" stroke="white" stroke-width="4" stroke-miterlimit="10" stroke-linecap="round"/>
<path d="M650.537 224.033L663.827 218.739" stroke="white" stroke-width="4" stroke-miterlimit="10" stroke-linecap="round"/>
<path d="M685.555 125.853L686.668 157.022C686.668 157.022 685.144 163.847 692.149 163.09C699.153 162.333 708.584 156.817 713.885 150.759C719.186 144.701 718.824 144.215 716.552 140.239C714.28 136.264 703.614 105.963 703.614 105.963L685.555 125.853Z" fill="#FFCCB3"/>
<path d="M685.714 128.467L698.63 120.242C698.63 120.242 692.907 145.359 686.668 157.022L685.714 128.467Z" fill="#FCBA9F"/>
<path d="M650.889 79.2091C650.889 79.2091 650.683 110.228 664.066 125.839C672.794 136.019 681.975 134.669 697.29 117.909C711.332 102.542 713.301 94.5331 713.301 94.5331L703.605 64.1011C703.605 64.1011 652.465 50.9791 650.889 79.2091Z" fill="#FFCCB3"/>
<path d="M664.206 72.013C664.206 72.013 669.812 85.626 680.223 89.43C690.633 93.234 693.357 100.308 693.357 100.308C693.357 100.308 695.354 88.669 703.536 89.092C711.718 89.515 710.055 103.96 704.977 108.756C704.977 108.756 711.086 120.087 716.266 128.467L738.953 105.951C738.953 105.951 727.264 92.438 724.694 81.565C722.124 70.692 713.806 41.584 682.095 43.512C644.863 45.775 647.001 76.03 648.583 92.834C648.583 92.834 660.259 88.357 664.206 72.013Z" fill="#1F2D49"/>
<path d="M681 113.484L668.107 119C668.096 118.937 668.084 118.868 668.074 118.797C667.986 118.207 667.946 117.396 668.131 116.505C668.493 114.762 669.724 112.646 673.388 111.272C675.74 110.607 677.746 111.263 679.218 112.136C679.956 112.574 680.544 113.059 680.947 113.435C680.966 113.451 680.983 113.467 681 113.484Z" fill="#E56441" stroke="#E56441"/>
<path d="M658.377 103.65C659.521 103.367 660.111 101.772 659.695 100.086C659.279 98.4001 658.014 97.2621 656.87 97.5451C655.726 97.8271 655.136 99.4231 655.552 101.109C655.969 102.794 657.233 103.932 658.377 103.65Z" fill="#080B09"/>
<path d="M675.337 99.7189C676.481 99.4369 677.071 97.8409 676.654 96.1549C676.238 94.4699 674.974 93.3319 673.83 93.6139C672.686 93.8969 672.096 95.4919 672.512 97.1779C672.928 98.8639 674.193 100.002 675.337 99.7189Z" fill="#080B09"/>
<path d="M651.955 97.7172L659.471 93.0344C659.592 92.944 659.676 92.8125 659.708 92.6649C659.74 92.5165 659.716 92.3628 659.643 92.2303C659.47 92.0224 659.257 91.8506 659.015 91.7264C658.774 91.6033 658.509 91.5293 658.239 91.5101C657.969 91.4913 657.697 91.5278 657.44 91.616C657.183 91.7055 656.948 91.8457 656.748 92.028L651.282 96.9421C650.794 97.2571 651.346 98.1109 651.955 97.7172Z" fill="#080B09"/>
<path d="M680.942 88.5113L669.162 88.5897C669.193 88.2321 669.298 87.8847 669.472 87.5707C669.645 87.2568 669.882 86.982 670.168 86.7643C670.454 86.5475 670.782 86.3927 671.131 86.3103C671.481 86.228 671.843 86.2197 672.196 86.2859L681.127 87.795C681.416 87.8115 681.377 88.5356 680.942 88.5113Z" fill="#080B09"/>
<path d="M664.43 98.0129L663.211 107.114L666.426 108.666" fill="#E56441"/>
<path d="M664.43 98.0129L663.211 107.114L666.426 108.666" stroke="#E56441" stroke-width="0.94666" stroke-linecap="round"/>
<path d="M672.987 257.588L645.109 265.587L641.701 282.766L648.043 301.779C648.043 301.779 652.503 298.779 651.573 291.781C650.643 284.782 674.201 284.982 678.518 276.184" fill="#FFCCB3"/>
<path d="M736.669 162.902C736.669 162.902 736.486 139.288 755.4 139.285C768.09 139.283 774.16 145.232 775.78 163.796C776.91 176.775 777.73 247.988 777.73 247.988C777.73 247.988 780.92 280.489 753.35 281.096L673.746 278.712L671.949 256.471L741.342 249.554L736.669 162.902Z" fill="#FEBB94"/>
<path d="M679.105 159.949C679.105 159.949 686.283 157.906 685.119 150.855C683.985 143.916 683.941 137.892 686.218 138.731C686.218 138.731 688.227 142.176 700.72 138.347C713.131 134.661 712.353 130.403 712.353 130.403C712.353 130.403 714.109 128.847 715.421 132.841C716.731 136.835 720.056 147.895 727.085 147.099L728.985 167.714L691.602 180.019C691.52 180.162 674.242 163.425 679.105 159.949Z" fill="#FEBB94"/>
<path d="M374.198 571.332H397.718" stroke="white" stroke-width="5" stroke-miterlimit="10" stroke-linecap="round"/>
<path opacity="0.5" d="M378.986 581.539H390.747" stroke="white" stroke-width="5" stroke-miterlimit="10" stroke-linecap="round"/>
<path d="M358.531 550.953L376.578 538.368L389.291 546.834L406.211 534.58" stroke="white" stroke-width="6.50414" stroke-linecap="round" stroke-linejoin="round"/>
<path d="M393.203 529.239H411.202V547.049" stroke="white" stroke-width="6.50414" stroke-linecap="round" stroke-linejoin="round"/>
<path d="M623.115 226.765L635.085 244.55L628.702 214.165L623.115 226.765Z" fill="#FF967C"/>
<defs>
<linearGradient id="paint0_linear_514_23663" x1="417.415" y1="65.927" x2="435.678" y2="375.972" gradientUnits="userSpaceOnUse">
<stop stop-color="white"/>
<stop offset="1" stop-color="#94B9FF"/>
</linearGradient>
<linearGradient id="paint1_linear_514_23663" x1="370.669" y1="157.5" x2="447.1" y2="693.254" gradientUnits="userSpaceOnUse">
<stop stop-color="white"/>
<stop offset="1" stop-color="#94B9FF"/>
</linearGradient>
<linearGradient id="paint2_linear_514_23663" x1="568.5" y1="157.5" x2="644.93" y2="693.254" gradientUnits="userSpaceOnUse">
<stop stop-color="white"/>
<stop offset="1" stop-color="#94B9FF"/>
</linearGradient>
<linearGradient id="paint3_linear_514_23663" x1="201.825" y1="491.89" x2="220.461" y2="721.307" gradientUnits="userSpaceOnUse">
<stop stop-color="white"/>
<stop offset="1" stop-color="#94B9FF"/>
</linearGradient>
</defs>
</svg>
