<svg width="244" height="244" viewBox="0 0 244 244" fill="none" xmlns="http://www.w3.org/2000/svg">
<path d="M0 122C0 54.6213 54.6213 0 122 0V0C189.379 0 244 54.6213 244 122V244H122C54.6213 244 0 189.379 0 122V122Z" fill="#6177F6"/>
<path d="M211.259 142.544C211.259 184.565 171.717 218.629 122.94 218.629C74.1629 218.629 34.6211 184.565 34.6211 142.544C34.6211 100.523 74.1629 66.4579 122.94 66.4579C171.717 66.4579 211.259 100.523 211.259 142.544Z" fill="#0D0D0D"/>
<ellipse cx="121.5" cy="142" rx="68.5" ry="57" fill="white"/>
<circle cx="104.44" cy="126.73" r="8.95125" fill="#131313"/>
<circle cx="136.067" cy="126.73" r="8.95125" fill="#131313"/>
<path d="M95.1905 148.213L82.6588 153.285C88.9247 167.309 102.948 179.244 129.205 175.365C150.211 172.262 163.618 155.175 167.696 147.019L153.97 143.439C144.721 157.761 131.294 163.43 115.48 162.535C102.829 161.819 96.6824 152.688 95.1905 148.213Z" fill="black"/>
<path d="M20 73.0222L42.6765 117.182L71.6189 83.7637L20 73.0222Z" fill="black"/>
<path d="M124.73 22L101.755 71.2319L148.301 73.0222L124.73 22Z" fill="black"/>
<path d="M222 66.4579L167.696 79.8848L200.815 112.109L222 66.4579Z" fill="black"/>
</svg>
